<?xml version="1.0" encoding="UTF-8" standalone="no"?>
<svg
   xmlns:dc="http://purl.org/dc/elements/1.1/"
   xmlns:cc="http://creativecommons.org/ns#"
   xmlns:rdf="http://www.w3.org/1999/02/22-rdf-syntax-ns#"
   xmlns:svg="http://www.w3.org/2000/svg"
   xmlns="http://www.w3.org/2000/svg"
   xmlns:sodipodi="http://sodipodi.sourceforge.net/DTD/sodipodi-0.dtd"
   xmlns:inkscape="http://www.inkscape.org/namespaces/inkscape"
   width="16"
   height="16"
   viewBox="0 0 1.6384 1.6385542"
   preserveAspectRatio="xMidYMid"
   version="1.1"
   id="svg80"
   sodipodi:docname="alfresco.svg"
   inkscape:version="1.0beta2 (2b71d25, 2019-12-03)">
  <metadata
     id="metadata86">
    <rdf:RDF>
      <cc:Work
         rdf:about="">
        <dc:format>image/svg+xml</dc:format>
        <dc:type
           rdf:resource="http://purl.org/dc/dcmitype/StillImage" />
        <dc:title />
      </cc:Work>
    </rdf:RDF>
  </metadata>
  <defs
     id="defs84" />
  <sodipodi:namedview
     pagecolor="#ffffff"
     bordercolor="#666666"
     inkscape:document-rotation="0"
     borderopacity="1"
     objecttolerance="10"
     gridtolerance="10"
     guidetolerance="10"
     inkscape:pageopacity="0"
     inkscape:pageshadow="2"
     inkscape:window-width="1920"
     inkscape:window-height="1155"
     id="namedview82"
     showgrid="true"
     inkscape:zoom="22.627417"
     inkscape:cx="3.4998917"
     inkscape:cy="15.536137"
     inkscape:window-x="0"
     inkscape:window-y="23"
     inkscape:window-maximized="0"
     inkscape:current-layer="svg80"
     units="in">
    <inkscape:grid
       id="grid139"
       type="xygrid" />
  </sodipodi:namedview>
  <path
     d="m 0.6089234,1.0374514 0.1815596,-0.1816587 -0.27263676,8.75e-6 h -6.5592e-4 c -0.15108102,0 -0.27355506,0.12254369 -0.27355506,0.27368235 0,0.1511649 0.12246529,0.2736911 0.27354631,0.2736911 0.0114568,0 0.0227387,-7.875e-4 0.0338456,-0.00175 C 0.49129446,1.2837462 0.51053488,1.1362388 0.6089234,1.0378626"
     fill="#87C040"
     id="path58"
     inkscape:connector-curvature="0"
     style="stroke-width:0.0056224" />
  <path
     d="M 0.83027569,1.1291426 V 0.87226019 L 0.63750417,1.0651626 0.63704065,1.0656089 c -0.10683681,0.1068899 -0.10683681,0.2801748 0,0.3870648 0.10682806,0.1068812 0.28003558,0.1068812 0.38686365,0 0.00787,-0.00788 0.015392,-0.016712 0.022301,-0.02555 C 0.92087184,1.3860862 0.83031068,1.2682413 0.83030193,1.1291338"
     fill="#87C040"
     id="path60"
     inkscape:connector-curvature="0"
     style="stroke-width:0.0056224" />
  <path
     d="M 1.0516192,1.0373989 0.87005963,0.85574895 V 1.1291776 c 0,0.1511649 0.12248277,0.2736823 0.27356377,0.2736823 0.151081,0 0.2735551,-0.1225262 0.2735551,-0.2736823 0,-0.011462 -7.871e-4,-0.02275 -0.00175,-0.033862 -0.1176193,0.059762 -0.2650534,0.040512 -0.3633982,-0.057925"
     fill="#87C040"
     id="path62"
     inkscape:connector-curvature="0"
     style="stroke-width:0.0056224" />
  <path
     d="m 1.4666351,0.6222203 c -0.00787,-0.007875 -0.016704,-0.0154 -0.025537,-0.0223125 -0.041017,0.12538745 -0.1588125,0.21599366 -0.297842,0.21599366 H 0.88651019 L 1.0797452,1.0092414 c 0.1068281,0.1068812 0.2800443,0.1068812 0.3868637,0 0.1068368,-0.10688123 0.1068368,-0.28017489 0,-0.38704735"
     fill="#87C040"
     id="path64"
     inkscape:connector-curvature="0"
     style="stroke-width:0.0056224" />
  <path
     d="m 1.1433173,0.22875049 c -0.011457,0 -0.022739,7.875e-4 -0.033846,0.00175 0.059733,0.11768745 0.040492,0.26518613 -0.057896,0.36357108 L 0.8700334,0.77571272 h 0.2732927 c 0.1510635,0 0.2735375,-0.12254369 0.2735375,-0.27369111 C 1.4168811,0.35086544 1.2943983,0.22833924 1.1433173,0.22833924"
     fill="#ED9A2D"
     id="path66"
     inkscape:connector-curvature="0"
     style="stroke-width:0.0056224" />
  <path
     d="m 1.0234582,0.17925177 c -0.106828,-0.10687244 -0.28003552,-0.10687244 -0.38686358,1.751e-5 -0.007871,0.007875 -0.0153923,0.0167125 -0.0222139,0.02555 0.12531636,0.0410375 0.21588627,0.15889119 0.21588627,0.29798111 V 0.75968274 L 1.0230385,0.56680659 1.023502,0.56634283 c 0.1068368,-0.1068812 0.1068368,-0.28017487 0,-0.38706481"
     fill="#5698C6"
     id="path68"
     inkscape:connector-curvature="0"
     style="stroke-width:0.0056224" />
  <path
     d="m 0.60914204,0.59466657 0.007871,0.007875 0.17332121,0.17340741 h 1.924e-4 V 0.50251162 c 0,-0.15115618 -0.12248277,-0.27369112 -0.2735638,-0.27369112 -0.15108103,0 -0.27355505,0.12252619 -0.27354631,0.27368237 0,0.0114625 7.7836e-4,0.02275 0.001749,0.033775 0.1176989,-0.059675 0.2653254,-0.04025 0.36367019,0.0581"
     fill="#5698C6"
     id="path70"
     inkscape:connector-curvature="0"
     style="stroke-width:0.0056224" />
  <path
     d="m 0.22017944,1.0296201 a 0.31536827,0.3155211 0 0 1 0.006997,-0.018812 c 3.1484e-4,-7.875e-4 5.947e-4,-0.00175 8.7456e-4,-0.00263 a 0.3084038,0.30855326 0 0 1 0.009008,-0.0195125 c 6.9965e-4,-0.00175 0.001749,-0.002625 0.001749,-0.004375 a 0.31316482,0.31331658 0 0 1 0.0104948,-0.0186375 c 3.9356e-4,-6.5625e-4 8.2209e-4,-8.7499e-4 8.7457e-4,-0.00175 a 0.30714468,0.30729354 0 0 1 0.011107,-0.016625 c 7.871e-4,-8.75e-4 0.001749,-0.002625 0.002624,-0.0035 a 0.31896573,0.31912031 0 0 1 0.013031,-0.0165375 c 8.7457e-4,-8.7501e-4 0.001749,-0.00175 0.002624,-0.0035 a 0.31166962,0.31182067 0 0 1 0.0136432,-0.014875 c 4.1978e-4,-4.2e-4 8.046e-4,-8.6625e-4 8.7457e-4,-8.75e-4 a 0.31183263,0.31198376 0 0 1 0.0155672,-0.014525 0.32310843,0.32326502 0 0 1 0.0200275,-0.016275 c 7.4337e-4,-5.5125e-4 0.001749,-8.75e-4 0.002624,-0.00175 a 0.31709392,0.3172476 0 0 1 0.0162669,-0.0111125 c 8.7457e-4,-7e-4 0.001749,-0.00175 0.003498,-0.00175 a 0.31659365,0.31674708 0 0 1 0.0183659,-0.0105 c 8.7456e-4,-6.825e-4 0.002624,-0.00175 0.004373,-0.00175 a 0.31087705,0.31102772 0 0 1 0.0189781,-0.009013 c 3.236e-4,-1.225e-4 6.2094e-4,-2.7999e-4 8.7457e-4,-4.1124e-4 a 0.31307488,0.31322661 0 0 1 0.0203773,-0.007875 0.32594144,0.3260994 0 0 1 0.0252749,-0.007875 c 8.7455e-4,-2.5375e-4 0.002624,-4.9e-4 0.003498,-7.35e-4 0.006122,-0.00175 0.0131185,-0.002625 0.0197652,-0.004375 8.7457e-4,-2.1e-4 0.002624,-4.725e-4 0.003498,-6.5625e-4 a 0.30926382,0.3094137 0 0 1 0.0219516,-0.002625 c 0.001749,-1.4e-4 0.003498,-2.4501e-4 0.004373,-3.7625e-4 a 0.32247888,0.32263516 0 0 1 0.0230885,-8.7499e-4 L 0.77323748,0.8155026 0.57999369,0.62217144 c -0.10682805,-0.1068812 -0.28004432,-0.10688995 -0.38686364,0 -0.10683681,0.1068812 -0.10683681,0.28017486 0,0.38704736 a 0.27763424,0.2777688 0 0 0 0.0253624,0.022487 c 2.9735e-4,-8.575e-4 6.5594e-4,-0.00175 8.7457e-4,-0.00263"
     fill="#5698C6"
     id="path72"
     inkscape:connector-curvature="0"
     style="stroke-width:0.0056224" />
  <path
     d="M 0.58137461,0.6226578 0.73437969,0.77573022 H 0.52871708 l -0.0116317,2.4501e-4 c -0.12523765,0 -0.23081508,-0.0841749 -0.26327892,-0.19910616 0.10418688,-0.05845 0.23850251,-0.0433125 0.32713088,0.045325 l 4.4603e-4,4.55e-4 M 0.79036056,0.50269536 v 0.2164749 L 0.64493797,0.57368408 0.63619232,0.56580909 C 0.54762517,0.47721537 0.53248645,0.34297295 0.59071496,0.23876924 0.70570271,0.27114423 0.7899845,0.37685293 0.7899845,0.50224036 v 6.5626e-4 m 0.2339722,0.0634375 -0.15300501,0.15308117 v -0.2057474 l -2.3613e-4,-0.0116375 c 0,-0.12529995 0.0841331,-0.23093864 0.19900714,-0.26340113 0.058421,0.10423871 0.043291,0.23860364 -0.045302,0.3272761 l -4.64e-4,4.4626e-4"
     fill="#446BA6"
     id="path74"
     inkscape:connector-curvature="0"
     style="stroke-width:0.0056224" />
  <path
     d="m 1.1431424,0.77555523 h -0.216376 l 0.1454138,-0.14548617 0.00787,-0.00875 c 0.088558,-0.0886025 0.2227341,-0.10375745 0.326886,-0.0455 -0.032359,0.11504495 -0.1380238,0.1993774 -0.2633401,0.1993774 h -6.559e-4"
     fill="#FFF101"
     id="path76"
     inkscape:connector-curvature="0"
     style="stroke-width:0.0056224" />
  <path
     d="M 1.0792467,1.0081826 0.92624166,0.8551102 H 1.1318868 l 0.011632,-2.45e-4 c 0.1252376,8.74e-6 0.2308151,0.0841749 0.2632701,0.1991149 -0.1041956,0.05845 -0.2384937,0.043313 -0.3271221,-0.045325 L 1.079212,1.0082001 M 0.87065434,1.1279351 V 0.91144266 l 0.14542256,0.14548624 0.00875,0.00787 C 1.1133809,1.1534099 1.12852,1.2876262 1.0702999,1.3918387 0.9553122,1.3594687 0.87102166,1.2537688 0.87102166,1.1283638 V 1.1277251 M 0.63850117,1.0656001 0.79150624,0.91251017 V 1.1182576 l 2.3615e-4,0.011638 c 0,0.1252999 -0.0841331,0.2309386 -0.19900718,0.2634186 -0.0584209,-0.104265 -0.0432909,-0.2386211 0.0453024,-0.3272936 l 4.4603e-4,-4.462e-4 M 0.51845844,0.8560202 h 0.21637602 l -0.14541385,0.1454862 -0.007871,0.00875 c -0.0885672,0.088611 -0.22273419,0.1037574 -0.32689483,0.0455 0.0323589,-0.11505375 0.13801504,-0.19936871 0.26335763,-0.19936871 h 6.4718e-4"
     fill="#45AB47"
     id="path78"
     inkscape:connector-curvature="0"
     style="stroke-width:0.0056224" />
</svg>
